<svg width="256" height="252" viewBox="0 0 256 252" fill="none" xmlns="http://www.w3.org/2000/svg">
<path d="M110.779 215.389L111.038 213.668L121.748 215.279L121.488 216.999L110.779 215.389Z" fill="#E2D0A0"/>
<path d="M65.1965 207.41C64.9019 207.11 64.5119 206.722 64.0266 206.245C63.5412 205.769 63.0563 205.306 62.572 204.858C61.8822 204.219 61.215 203.615 60.5702 203.045C59.9255 202.476 59.4711 202.069 59.2069 201.824C57.6659 200.398 56.8061 199.002 56.6275 197.638C56.4489 196.273 56.8295 195.086 57.7693 194.075C58.246 193.562 58.826 193.159 59.5092 192.865C60.1642 192.572 60.9318 192.451 61.8122 192.503C62.6643 192.556 63.617 192.838 64.6704 193.35L64.7113 193.306C63.6881 192.087 63.0442 190.973 62.7798 189.965C62.4871 188.958 62.4607 188.061 62.7004 187.275C62.9402 186.488 63.3393 185.795 63.8977 185.195C64.6741 184.36 65.5747 183.817 66.5996 183.567C67.5962 183.317 68.661 183.377 69.7941 183.744C70.9271 184.112 72.044 184.805 73.1447 185.824C73.4676 186.123 73.9451 186.579 74.5773 187.191C75.1958 187.818 75.9601 188.553 76.87 189.395C77.3837 189.871 77.8968 190.332 78.4095 190.779C78.9085 191.241 79.3257 191.6 79.6611 191.856L79.2525 192.296C78.7263 191.863 78.2975 191.575 77.9663 191.432C77.6204 191.275 77.2809 191.288 76.9476 191.47C76.6144 191.652 76.2026 192.007 75.7123 192.534L65.5789 203.431C65.075 203.972 64.7513 204.409 64.6078 204.739C64.4507 205.084 64.4634 205.423 64.6458 205.755C64.8 206.089 65.1197 206.494 65.6051 206.971L65.1965 207.41ZM60.1455 201.916C60.8206 202.541 61.3766 202.824 61.8137 202.766C62.2507 202.707 62.8233 202.297 63.5315 201.535L73.6649 190.639C74.1417 190.126 74.4586 189.697 74.6157 189.352C74.7728 189.007 74.7748 188.682 74.6217 188.377C74.4686 188.071 74.1645 187.708 73.7095 187.287C72.2712 185.956 70.9228 185.32 69.6641 185.382C68.3771 185.444 67.1616 186.09 66.0175 187.32C64.9687 188.448 64.4665 189.605 64.5109 190.791C64.5406 191.963 65.2526 193.194 66.6469 194.485L68.9144 196.584C68.9144 196.584 68.8599 196.643 68.7509 196.76C68.6284 196.892 68.5671 196.958 68.5671 196.958L66.6738 195.205C65.8079 194.403 64.9903 193.946 64.221 193.834C63.4381 193.736 62.7066 193.876 62.0265 194.255C61.3328 194.648 60.6932 195.16 60.1075 195.79C59.0996 196.874 58.5858 197.911 58.5662 198.901C58.5183 199.892 59.0447 200.897 60.1455 201.916Z" fill="#E2D0A0"/>
<path d="M39.4119 177.645C38.4602 176 38.0014 174.349 38.0354 172.69C38.0594 171.015 38.5779 169.435 39.591 167.951C40.5768 166.46 42.0661 165.141 44.0591 163.993C46.0001 162.875 47.9039 162.251 49.7703 162.122C51.6268 161.976 53.3229 162.292 54.8586 163.069C56.3944 163.846 57.6281 165.04 58.5597 166.649C59.5113 168.294 59.9751 169.954 59.9511 171.63C59.9172 173.288 59.3986 174.868 58.3955 176.369C57.3825 177.852 55.8881 179.163 53.9124 180.301C51.9714 181.419 50.0677 182.043 48.2012 182.172C46.3348 182.301 44.6387 181.985 43.1129 181.225C41.5771 180.448 40.3435 179.254 39.4119 177.645ZM39.9399 177.479C40.591 178.604 41.5469 179.357 42.8076 179.739C44.0683 180.121 45.5184 180.151 47.158 179.83C48.7875 179.491 50.5035 178.803 52.3059 177.765C54.1429 176.706 55.6007 175.532 56.6793 174.241C57.7305 172.943 58.3783 171.647 58.6227 170.352C58.8397 169.05 58.6427 167.871 58.0316 166.815C57.3805 165.69 56.4246 164.936 55.1639 164.555C53.9032 164.173 52.4581 164.152 50.8286 164.49C49.1717 164.821 47.4507 165.501 45.6657 166.529C43.8113 167.598 42.3585 168.781 41.3073 170.079C40.246 171.359 39.6018 172.642 39.3748 173.927C39.1305 175.222 39.3188 176.406 39.9399 177.479Z" fill="#E2D0A0"/>
<path d="M26.7889 140.736L27.3739 140.603C27.5901 141.19 27.9189 141.73 28.3603 142.225C28.8017 142.719 29.4478 143.167 30.2986 143.568L38.8149 147.567L37.2344 147.25L45.4571 137.993C45.8688 137.55 46.1666 137.103 46.3504 136.651C46.5342 136.199 46.635 135.653 46.6527 135.013L47.2377 134.88C47.3058 135.357 47.4201 135.946 47.5807 136.648C47.7173 137.335 47.8413 137.922 47.9528 138.409C48.0286 138.741 48.132 139.148 48.263 139.631C48.3701 140.099 48.5256 140.689 48.7296 141.401L48.1446 141.535C47.954 140.881 47.7411 140.488 47.5059 140.357C47.2708 140.226 46.9646 140.367 46.5875 140.782L41.129 146.517C40.6137 147.044 40.2454 147.497 40.0243 147.876C39.7792 148.239 39.6458 148.598 39.6241 148.952C39.5979 149.286 39.6309 149.699 39.7229 150.191L39.1379 150.324C38.931 149.509 38.6189 148.863 38.2015 148.383C37.7602 147.889 37.2631 147.51 36.7104 147.246L32.4995 145.251C31.5332 144.794 30.7406 144.513 30.1216 144.408C29.5025 144.303 29.0757 144.41 28.8412 144.73C28.5872 145.055 28.5441 145.629 28.7119 146.452L28.1269 146.585C28.0616 146.21 27.9942 145.826 27.9245 145.432C27.8353 145.042 27.758 144.659 27.6928 144.284C27.6036 143.894 27.5211 143.534 27.4453 143.202C27.3293 142.695 27.2125 142.23 27.0949 141.805C26.9773 141.381 26.8753 141.024 26.7889 140.736ZM28.9163 150.036L29.5013 149.903C29.6725 150.561 29.8665 151.051 30.0832 151.37C30.2761 151.675 30.5614 151.846 30.9391 151.883C31.2974 151.925 31.8373 151.863 32.5588 151.699L47.0674 148.395C47.7694 148.235 48.2826 148.057 48.6068 147.86C48.9311 147.663 49.1138 147.385 49.155 147.027C49.1917 146.65 49.1537 146.125 49.0411 145.453L49.6261 145.32C49.6897 145.777 49.7996 146.347 49.9557 147.03C50.0878 147.697 50.2319 148.372 50.388 149.054C50.562 149.815 50.7345 150.524 50.9057 151.182C51.0573 151.845 51.1995 152.377 51.3321 152.777L50.7471 152.911C50.5564 152.257 50.3647 151.777 50.1719 151.473C49.9746 151.148 49.6871 150.968 49.3093 150.931C48.9315 150.893 48.3916 150.955 47.6896 151.115L33.181 154.419C32.4595 154.583 31.9464 154.761 31.6416 154.954C31.3174 155.151 31.1369 155.438 31.1001 155.816C31.0395 156.178 31.0752 156.693 31.2073 157.36L30.6223 157.494C30.5481 157.08 30.445 156.539 30.3128 155.872C30.1807 155.204 30.0277 154.491 29.8537 153.73C29.6976 153.048 29.534 152.378 29.3628 151.719C29.1872 151.041 29.0384 150.48 28.9163 150.036Z" fill="#E2D0A0"/>
<path d="M26.3107 117.72L45.6764 111.828C46.4568 111.585 46.9908 111.284 47.2786 110.925C47.5464 110.564 47.7022 110.224 47.7461 109.907L48.3445 109.952C48.2746 110.347 48.218 110.835 48.1745 111.413C48.1111 111.99 48.0577 112.567 48.0143 113.146C47.9559 113.924 47.9112 114.652 47.8802 115.332C47.8292 116.01 47.808 116.56 47.8164 116.982L47.2181 116.937C47.2546 115.917 47.1338 115.256 46.8556 114.954C46.5574 114.651 45.8848 114.661 44.8377 114.984L29.5512 119.437L29.1983 118.929L42.3295 125.145C43.1034 125.524 43.7672 125.764 44.3212 125.866C44.8552 125.966 45.2877 125.948 45.6188 125.813C45.9514 125.657 46.2025 125.385 46.3721 124.996C46.5431 124.588 46.6619 124.075 46.7282 123.459L47.3266 123.503C47.2447 124.059 47.1806 124.646 47.1342 125.264C47.0693 125.861 47.0174 126.418 46.9784 126.937C46.941 127.436 46.9187 127.865 46.9117 128.226C46.8862 128.565 46.8822 128.885 46.8996 129.187L46.3013 129.143C46.2315 128.736 46.0329 128.31 45.7054 127.865C45.3579 127.418 44.7481 126.991 43.8761 126.585L26.2747 118.199C26.2807 118.119 26.2867 118.039 26.2927 117.96C26.2987 117.88 26.3047 117.8 26.3107 117.72ZM39.2993 115.021L39.8977 115.066L39.2281 123.981L38.6522 123.637L39.2993 115.021Z" fill="#E2D0A0"/>
<path d="M61.7291 65.1083L63.0907 66.1916L56.3289 74.6513L54.9673 73.568L61.7291 65.1083Z" fill="#E2D0A0"/>
<path d="M91.4726 29.7305C91.8799 29.6261 92.4115 29.4834 93.0673 29.3025C93.7232 29.1216 94.3665 28.9341 94.9973 28.7399C95.8957 28.4635 96.7529 28.1892 97.569 27.9171C98.385 27.645 98.9651 27.4561 99.3092 27.3502C101.316 26.7325 102.956 26.6881 104.229 27.217C105.502 27.746 106.343 28.6697 106.75 29.9881C106.957 30.6569 107.018 31.3602 106.932 32.0981C106.859 32.811 106.58 33.535 106.096 34.27C105.625 34.9801 104.904 35.6622 103.934 36.3165L103.952 36.3738C105.521 36.1001 106.809 36.1014 107.815 36.3776C108.835 36.6288 109.626 37.0549 110.189 37.656C110.751 38.2571 111.154 38.9493 111.396 39.7327C111.733 40.8219 111.754 41.8721 111.459 42.8835C111.178 43.8698 110.595 44.7607 109.711 45.556C108.826 46.3514 107.667 46.9697 106.233 47.4109C105.813 47.5403 105.179 47.7249 104.332 47.9646C103.479 48.1852 102.46 48.4779 101.275 48.8427C100.606 49.0486 99.9496 49.2611 99.3056 49.4802C98.6556 49.6802 98.1359 49.8611 97.7463 50.0228L97.5691 49.4496C98.2072 49.2114 98.671 48.9849 98.9605 48.7703C99.2691 48.5498 99.4276 48.2499 99.436 47.8706C99.4443 47.4914 99.3422 46.9578 99.1295 46.27L94.7344 32.0539C94.5158 31.3469 94.299 30.8486 94.0838 30.5591C93.8628 30.2505 93.5625 30.0918 93.183 30.083C92.8167 30.0493 92.3056 30.1228 91.6498 30.3037L91.4726 29.7305ZM98.7607 28.1153C97.8814 28.386 97.3581 28.7249 97.191 29.132C97.0238 29.5392 97.0938 30.2396 97.401 31.2332L101.796 45.4493C102.003 46.1181 102.217 46.6068 102.438 46.9154C102.659 47.2241 102.94 47.3887 103.281 47.4092C103.623 47.4297 104.089 47.3488 104.682 47.1664C106.555 46.5899 107.78 45.7423 108.355 44.6236C108.943 43.4799 108.989 42.1056 108.493 40.5005C108.038 39.0292 107.285 38.0159 106.234 37.4604C105.203 36.8991 103.779 36.8979 101.963 37.4567L99.0094 38.3656C99.0094 38.3656 98.9858 38.2892 98.9385 38.1363C98.8854 37.9644 98.8588 37.8784 98.8588 37.8784L101.325 37.1195C102.452 36.7724 103.257 36.2946 103.739 35.6859C104.215 35.0582 104.458 34.3556 104.469 33.578C104.474 32.7813 104.349 31.9721 104.095 31.1505C103.658 29.7365 103.015 28.7731 102.165 28.2603C101.329 27.7224 100.194 27.6741 98.7607 28.1153Z" fill="#E2D0A0"/>
<path d="M130.418 22.34C132.318 22.34 133.978 22.77 135.398 23.63C136.838 24.49 137.948 25.73 138.728 27.35C139.528 28.95 139.928 30.9 139.928 33.2C139.928 35.44 139.518 37.4 138.698 39.08C137.898 40.76 136.778 42.07 135.338 43.01C133.898 43.95 132.248 44.42 130.388 44.42C128.488 44.42 126.818 43.99 125.378 43.13C123.958 42.27 122.848 41.03 122.048 39.41C121.268 37.79 120.878 35.84 120.878 33.56C120.878 31.32 121.288 29.36 122.108 27.68C122.928 26 124.048 24.69 125.468 23.75C126.908 22.81 128.558 22.34 130.418 22.34ZM130.298 22.88C128.998 22.88 127.868 23.33 126.908 24.23C125.948 25.13 125.198 26.37 124.658 27.95C124.138 29.53 123.878 31.36 123.878 33.44C123.878 35.56 124.168 37.41 124.748 38.99C125.348 40.55 126.148 41.76 127.148 42.62C128.168 43.46 129.288 43.88 130.508 43.88C131.808 43.88 132.938 43.43 133.898 42.53C134.858 41.63 135.598 40.39 136.118 38.81C136.658 37.21 136.928 35.38 136.928 33.32C136.928 31.18 136.628 29.33 136.028 27.77C135.448 26.21 134.658 25.01 133.658 24.17C132.658 23.31 131.538 22.88 130.298 22.88Z" fill="#E2D0A0"/>
<path d="M168.513 29.887L168.336 30.4602C167.719 30.3543 167.087 30.3689 166.438 30.504C165.789 30.6391 165.078 30.9748 164.305 31.5112L156.583 36.8875L157.648 35.6773L161.552 47.4253C161.729 48.003 161.968 48.4845 162.267 48.8696C162.567 49.2548 162.989 49.615 163.535 49.9502L163.357 50.5234C162.91 50.344 162.343 50.1484 161.655 49.9367C160.992 49.7117 160.421 49.5256 159.943 49.3785C159.618 49.2785 159.214 49.1646 158.73 49.0366C158.271 48.8954 157.682 48.7351 156.963 48.5556L157.141 47.9824C157.802 48.1442 158.249 48.156 158.48 48.0179C158.711 47.8798 158.741 47.5439 158.572 47.0103L156.335 39.4165C156.136 38.7065 155.927 38.1611 155.71 37.7804C155.518 37.3864 155.274 37.0916 154.979 36.8961C154.702 36.7064 154.328 36.5285 153.856 36.3623L154.033 35.7891C154.842 36.0171 155.559 36.0701 156.182 35.9482C156.831 35.8131 157.408 35.5721 157.913 35.2253L161.747 32.5757C162.626 31.9673 163.265 31.4214 163.666 30.9379C164.067 30.4543 164.187 30.031 164.027 29.6679C163.873 29.2857 163.398 28.9615 162.601 28.6954L162.778 28.1221C163.136 28.253 163.502 28.3868 163.879 28.5236C164.261 28.6412 164.631 28.7655 164.988 28.8964C165.37 29.0141 165.724 29.1229 166.049 29.2229C166.546 29.3758 167.008 29.5075 167.434 29.6178C167.861 29.7281 168.22 29.8178 168.513 29.887ZM159.395 27.0809L159.218 27.6541C158.562 27.4732 158.041 27.3967 157.656 27.4245C157.295 27.4392 157.005 27.6008 156.784 27.9094C156.568 28.199 156.352 28.6972 156.133 29.4042L151.738 43.6203C151.525 44.3082 151.423 44.8417 151.431 45.221C151.44 45.6002 151.589 45.8972 151.878 46.1118C152.187 46.3324 152.66 46.5617 153.298 46.8L153.121 47.3732C152.693 47.1997 152.145 47.01 151.476 46.8041C150.832 46.5849 150.175 46.3724 149.506 46.1665C148.761 45.9371 148.06 45.7319 147.404 45.551C146.754 45.351 146.223 45.2083 145.81 45.123L145.987 44.5498C146.649 44.7116 147.16 44.7852 147.52 44.7705C147.9 44.7618 148.2 44.6031 148.421 44.2944C148.642 43.9858 148.859 43.4875 149.071 42.7997L153.466 28.5836C153.685 27.8766 153.787 27.343 153.773 26.9829C153.765 26.6037 153.606 26.3038 153.297 26.0832C153.014 25.8495 152.55 25.623 151.906 25.4039L152.083 24.8307C152.479 24.9733 152.999 25.1542 153.643 25.3733C154.287 25.5925 154.981 25.8167 155.727 26.0462C156.396 26.2521 157.058 26.4455 157.714 26.6264C158.389 26.8132 158.949 26.9647 159.395 27.0809Z" fill="#E2D0A0"/>
<path d="M188.753 40.9811L184.159 60.6779C183.978 61.4742 183.972 62.0865 184.139 62.5149C184.318 62.9267 184.534 63.2309 184.787 63.4274L184.449 63.9228C184.141 63.6648 183.747 63.3727 183.267 63.0465C182.799 62.7038 182.325 62.3693 181.845 62.0431C181.2 61.6044 180.591 61.202 180.018 60.8361C179.455 60.4536 178.989 60.1608 178.62 59.9576L178.958 59.4622C179.824 60.0029 180.457 60.2281 180.858 60.1379C181.27 60.0312 181.599 59.4443 181.843 58.3771L185.642 42.9284L186.259 42.8764L174.292 51.1361C173.576 51.6167 173.035 52.0712 172.67 52.4998C172.316 52.9119 172.114 53.2951 172.066 53.6493C172.034 54.0147 172.144 54.3677 172.396 54.7083C172.664 55.0601 173.049 55.4186 173.551 55.7839L173.212 56.2792C172.772 55.9312 172.295 55.5829 171.782 55.2342C171.298 54.8802 170.84 54.557 170.41 54.2645C169.997 53.9833 169.636 53.7497 169.327 53.5637C169.046 53.3725 168.77 53.209 168.499 53.0733L168.838 52.5779C169.225 52.7203 169.693 52.7611 170.244 52.7C170.806 52.6225 171.481 52.3078 172.27 51.756L188.356 40.7111C188.422 40.7561 188.488 40.8011 188.554 40.8461C188.621 40.8911 188.687 40.9361 188.753 40.9811ZM184.586 53.5665L184.247 54.0619L176.855 49.0337L177.442 48.707L184.586 53.5665Z" fill="#E2D0A0"/>
<path d="M216.715 97.8901L215.095 98.5245L211.13 88.4463L212.751 87.8118L216.715 97.8901Z" fill="#E2D0A0"/>
<path d="M232.562 141.258C232.449 141.663 232.307 142.195 232.136 142.853C231.964 143.511 231.805 144.162 231.658 144.806C231.448 145.722 231.257 146.602 231.085 147.444C230.913 148.287 230.787 148.884 230.706 149.235C230.238 151.282 229.457 152.725 228.362 153.562C227.268 154.4 226.048 154.666 224.702 154.36C224.02 154.204 223.38 153.905 222.784 153.461C222.203 153.042 221.715 152.439 221.321 151.651C220.942 150.888 220.711 149.923 220.629 148.756L220.571 148.742C220.024 150.238 219.379 151.353 218.637 152.086C217.909 152.844 217.145 153.316 216.343 153.502C215.541 153.689 214.741 153.691 213.941 153.509C212.829 153.256 211.909 152.749 211.181 151.988C210.467 151.251 209.987 150.301 209.74 149.137C209.493 147.973 209.537 146.66 209.872 145.198C209.97 144.769 210.127 144.128 210.343 143.275C210.578 142.426 210.834 141.397 211.11 140.188C211.266 139.506 211.411 138.831 211.543 138.164C211.694 137.501 211.798 136.96 211.852 136.542L212.437 136.675C212.325 137.347 212.289 137.862 212.33 138.22C212.367 138.597 212.547 138.885 212.871 139.081C213.196 139.278 213.709 139.457 214.411 139.617L228.919 142.921C229.641 143.085 230.181 143.146 230.539 143.105C230.917 143.068 231.204 142.887 231.402 142.563C231.614 142.262 231.806 141.783 231.977 141.125L232.562 141.258ZM230.318 148.377C230.523 147.48 230.491 146.858 230.222 146.509C229.953 146.161 229.311 145.871 228.297 145.64L213.789 142.336C213.106 142.181 212.576 142.122 212.198 142.159C211.82 142.196 211.537 142.357 211.349 142.642C211.161 142.928 210.997 143.372 210.859 143.977C210.422 145.888 210.544 147.372 211.225 148.429C211.922 149.511 213.089 150.238 214.727 150.611C216.229 150.953 217.483 150.808 218.489 150.176C219.491 149.563 220.204 148.33 220.627 146.478L221.316 143.466C221.316 143.466 221.394 143.484 221.55 143.519C221.726 143.559 221.814 143.579 221.814 143.579L221.238 146.094C220.975 147.245 220.987 148.181 221.273 148.902C221.579 149.628 222.066 150.19 222.734 150.589C223.421 150.991 224.184 151.288 225.023 151.479C226.466 151.808 227.622 151.732 228.49 151.253C229.374 150.798 229.983 149.84 230.318 148.377Z" fill="#E2D0A0"/>
<path d="M219.607 178.426C218.655 180.07 217.451 181.292 215.994 182.092C214.528 182.909 212.898 183.251 211.103 183.118C209.316 183.011 207.426 182.384 205.433 181.236C203.492 180.118 201.999 178.785 200.954 177.237C199.899 175.706 199.325 174.082 199.231 172.367C199.138 170.651 199.557 168.989 200.489 167.379C201.44 165.734 202.649 164.503 204.116 163.686C205.572 162.886 207.203 162.545 209.007 162.661C210.802 162.794 212.687 163.43 214.662 164.568C216.603 165.686 218.096 167.019 219.141 168.568C220.187 170.116 220.761 171.739 220.864 173.438C220.957 175.153 220.538 176.816 219.607 178.426ZM219.199 178.052C219.85 176.927 220.026 175.724 219.727 174.444C219.428 173.164 218.729 171.896 217.63 170.64C216.522 169.401 215.066 168.263 213.264 167.225C211.427 166.166 209.678 165.494 208.019 165.207C206.367 164.948 204.917 165.037 203.671 165.473C202.433 165.936 201.508 166.696 200.897 167.752C200.246 168.877 200.07 170.08 200.369 171.36C200.668 172.64 201.371 173.9 202.48 175.138C203.596 176.404 205.047 177.551 206.832 178.58C208.686 179.648 210.439 180.312 212.092 180.571C213.734 180.848 215.169 180.763 216.398 180.317C217.644 179.88 218.578 179.126 219.199 178.052Z" fill="#E2D0A0"/>
<path d="M193.889 207.774L193.48 207.335C193.88 206.855 194.185 206.301 194.392 205.673C194.6 205.044 194.665 204.262 194.586 203.326L193.789 193.967L194.306 195.492L182.158 193.001C181.568 192.866 181.03 192.832 180.546 192.899C180.062 192.965 179.538 193.151 178.974 193.455L178.565 193.015C178.945 192.719 179.399 192.326 179.927 191.837C180.454 191.376 180.902 190.975 181.268 190.636C181.518 190.405 181.819 190.112 182.173 189.758C182.525 189.432 182.959 189.003 183.475 188.471L183.883 188.91C183.411 189.401 183.178 189.781 183.182 190.05C183.186 190.319 183.462 190.513 184.01 190.632L191.719 192.49C192.435 192.672 193.012 192.764 193.451 192.767C193.889 192.797 194.267 192.734 194.585 192.576C194.888 192.432 195.229 192.197 195.61 191.872L196.019 192.312C195.416 192.897 195.011 193.489 194.804 194.09C194.597 194.718 194.517 195.337 194.565 195.947L194.944 200.583C195.032 201.647 195.185 202.472 195.404 203.06C195.623 203.648 195.93 203.963 196.325 204.006C196.733 204.064 197.253 203.815 197.883 203.259L198.292 203.698C197.999 203.942 197.699 204.192 197.392 204.449C197.099 204.721 196.806 204.978 196.513 205.222C196.22 205.494 195.948 205.745 195.699 205.976C195.317 206.329 194.971 206.663 194.662 206.976C194.353 207.29 194.095 207.556 193.889 207.774ZM200.889 201.293L200.481 200.854C200.966 200.377 201.293 199.966 201.462 199.618C201.63 199.3 201.635 198.968 201.478 198.622C201.335 198.292 201.011 197.856 200.507 197.314L190.373 186.418C189.883 185.89 189.471 185.536 189.138 185.354C188.805 185.172 188.473 185.152 188.141 185.295C187.796 185.452 187.359 185.747 186.833 186.179L186.425 185.74C186.789 185.457 187.229 185.077 187.742 184.602C188.255 184.154 188.768 183.693 189.282 183.217C189.854 182.688 190.383 182.184 190.868 181.708C191.367 181.246 191.757 180.857 192.038 180.543L192.447 180.982C191.975 181.473 191.655 181.879 191.488 182.197C191.305 182.53 191.293 182.869 191.45 183.214C191.607 183.559 191.93 183.995 192.421 184.522L202.554 195.419C203.058 195.96 203.47 196.315 203.79 196.483C204.123 196.665 204.462 196.677 204.808 196.521C205.153 196.392 205.582 196.104 206.094 195.657L206.503 196.096C206.181 196.367 205.764 196.726 205.251 197.173C204.739 197.621 204.196 198.109 203.624 198.639C203.11 199.115 202.611 199.591 202.125 200.067C201.625 200.558 201.213 200.966 200.889 201.293Z" fill="#E2D0A0"/>
<path d="M174.143 219.703L159.343 205.88C158.742 205.325 158.214 205.013 157.758 204.943C157.311 204.892 156.939 204.926 156.642 205.047L156.381 204.507C156.759 204.369 157.21 204.175 157.732 203.924C158.264 203.691 158.791 203.449 159.314 203.197C160.017 202.86 160.67 202.535 161.275 202.222C161.888 201.928 162.375 201.671 162.736 201.453L162.997 201.994C162.095 202.472 161.583 202.906 161.461 203.298C161.347 203.707 161.693 204.284 162.497 205.03L174.007 216.041L173.744 216.6L172.555 202.127C172.496 201.268 172.371 200.574 172.182 200.043C172.001 199.531 171.769 199.165 171.486 198.947C171.185 198.736 170.823 198.655 170.402 198.702C169.963 198.758 169.459 198.911 168.892 199.161L168.631 198.621C169.153 198.415 169.693 198.177 170.252 197.909C170.802 197.667 171.311 197.433 171.78 197.208C172.23 196.991 172.613 196.796 172.929 196.622C173.236 196.475 173.515 196.318 173.768 196.153L174.029 196.693C173.712 196.956 173.443 197.341 173.221 197.847C173.007 198.371 172.943 199.112 173.028 200.07L174.576 219.496C174.504 219.53 174.431 219.565 174.359 219.599C174.287 219.634 174.215 219.669 174.143 219.703ZM165.302 209.806L165.041 209.266L173.099 205.394L173.09 206.064L165.302 209.806Z" fill="#E2D0A0"/>
</svg>
